<?xml version="1.0" encoding="UTF-8"?>
<svg id="Layer_2" data-name="Layer 2" xmlns="http://www.w3.org/2000/svg" viewBox="0 0 1344.22 352.53">
  <defs>
    <style>
      .cls-1 {
        fill: #5ecae7;
      }

      .cls-2 {
        stroke-width: 13.32px;
      }

      .cls-2, .cls-3 {
        fill: none;
        stroke: #5ecae7;
        stroke-linecap: round;
        stroke-linejoin: round;
      }

      .cls-3 {
        stroke-width: 6.34px;
      }
    </style>
  </defs>
  <g id="Layer_1-2" data-name="Layer 1">
    <g>
      <g>
        <path class="cls-1" d="M599.04,93.96h-35.16v-14.54c0-1.06-.79-1.85-1.59-1.85h-116.85c-1.06,0-1.85.79-1.85,1.85v39.13c0,1.06.79,1.85,1.85,1.85h116.85c20.09,0,36.75,16.39,36.75,36.75v39.13c0,20.36-16.66,36.75-36.75,36.75h-116.85c-20.36,0-36.75-16.39-36.75-36.75v-14.54h34.9v14.54c0,1.06.79,1.85,1.85,1.85h116.85c.79,0,1.59-.79,1.59-1.85v-39.13c0-1.06-.79-1.85-1.59-1.85h-116.85c-20.36,0-36.75-16.39-36.75-36.75v-39.13c0-20.36,16.39-36.75,36.75-36.75h116.85c20.09,0,36.75,16.39,36.75,36.75v14.54Z"/>
        <path class="cls-1" d="M627.59,42.67h34.9v190.35h-34.9V42.67Z"/>
        <path class="cls-1" d="M875.83,94.22h-35.16v-14.81c0-1.06-.79-1.85-1.85-1.85h-116.59c-1.06,0-1.85.79-1.85,1.85v116.85c0,1.06.79,1.85,1.85,1.85h116.59c1.06,0,1.85-.79,1.85-1.85v-35.96h-43.09v-34.9h78.26v70.85c0,20.36-16.66,36.75-37.01,36.75h-116.59c-20.36,0-36.75-16.39-36.75-36.75v-116.85c0-20.36,16.39-36.75,36.75-36.75h116.59c20.36,0,37.01,16.39,37.01,36.75v14.81Z"/>
        <path class="cls-1" d="M1081.25,42.67h38.33v190.35h-35.16V93.43l-72.17,85.92-72.44-85.92v139.59h-34.9V42.67h38.07l69.27,82.49,69-82.49Z"/>
        <path class="cls-1" d="M1304.12,42.67c20.36,0,37.01,16.39,37.01,36.75v153.6h-35.16v-63.98h-120.29v63.98h-34.9V79.42c0-20.36,16.39-36.75,36.75-36.75h116.59ZM1305.97,134.14v-54.73c0-1.06-.79-1.85-1.85-1.85h-116.59c-1.06,0-1.85.79-1.85,1.85v54.73h120.29Z"/>
      </g>
      <g>
        <path class="cls-1" d="M488.68,277.84h-8.4v-2.91c0-2.18-1.87-4.05-4.05-4.05h-49.8c-2.18,0-4.05,1.87-4.05,4.05v16.7c0,2.18,1.87,3.94,4.05,3.94h49.8c6.95,0,12.45,5.6,12.45,12.45v16.7c0,6.95-5.5,12.45-12.45,12.45h-49.8c-6.95,0-12.45-5.5-12.45-12.45v-2.91h8.4v2.91c0,2.18,1.87,4.05,4.05,4.05h49.8c2.18,0,4.05-1.87,4.05-4.05v-16.7c0-2.18-1.87-3.94-4.05-3.94h-49.8c-6.95,0-12.45-5.6-12.45-12.45v-16.7c0-6.95,5.5-12.45,12.45-12.45h49.8c6.95,0,12.45,5.5,12.45,12.45v2.91Z"/>
        <path class="cls-1" d="M562.03,262.59c6.95,0,12.45,5.6,12.45,12.45v21.89c0,6.85-5.5,12.45-12.45,12.45h-49.8c-.93,0-2.49-.21-4.05-.41v28.22h-8.4v-74.6h62.25ZM566.08,275.04c0-2.18-1.87-4.05-4.05-4.05h-49.8c-2.18,0-4.05,1.87-4.05,4.05v21.89c0,2.18,1.87,3.94,4.05,3.94h49.8c2.18,0,4.05-1.76,4.05-3.94v-21.89Z"/>
        <path class="cls-1" d="M643.89,262.49c6.95,0,12.45,5.5,12.45,12.45v49.8c0,6.95-5.5,12.45-12.45,12.45h-49.8c-6.95,0-12.45-5.5-12.45-12.45v-49.8c0-6.95,5.5-12.45,12.45-12.45h49.8ZM643.89,328.79c2.18,0,4.05-1.87,4.05-4.05v-49.8c0-2.18-1.87-4.05-4.05-4.05h-49.8c-2.18,0-4.05,1.87-4.05,4.05v49.8c0,2.18,1.87,4.05,4.05,4.05h49.8Z"/>
        <path class="cls-1" d="M742.35,296.94c0,6.85-5.5,12.45-12.45,12.45h-11.41l23.45,27.81h-11.1l-23.34-27.81h-27.39c-1.04,0-2.49-.21-4.05-.41v28.22h-8.4v-74.6h62.25c6.95,0,12.45,5.6,12.45,12.45v21.89ZM729.9,300.88c2.18,0,3.94-1.76,3.94-3.94v-21.89c0-2.18-1.76-4.05-3.94-4.05h-49.8c-2.18,0-4.05,1.87-4.05,4.05v21.89c0,2.18,1.87,3.94,4.05,3.94h49.8Z"/>
        <path class="cls-1" d="M824.32,262.49v8.4h-33.1v66.3h-8.4v-66.3h-33.2v-8.4h74.7Z"/>
        <path class="cls-1" d="M872.77,270.89c-2.18,0-4.05,1.87-4.05,4.05v49.8c0,2.18,1.87,4.05,4.05,4.05h62.04v8.4h-62.04c-6.95,0-12.45-5.5-12.45-12.45v-49.8c0-6.95,5.5-12.45,12.45-12.45h62.04v8.4h-62.04Z"/>
        <path class="cls-1" d="M1013.98,270.89h-59.76v24.69h48.04v8.51h-48.04v24.69h59.76v8.4h-68.17v-74.7h68.17v8.4Z"/>
        <path class="cls-1" d="M1091.38,262.49h8.4v74.7h-11.52l-54.78-65.16v65.16h-8.4v-74.7h11.52l54.78,65.16v-65.16Z"/>
        <path class="cls-1" d="M1182.37,262.49v8.4h-33.1v66.3h-8.4v-66.3h-33.2v-8.4h74.7Z"/>
        <path class="cls-1" d="M1258.52,270.89h-59.76v24.69h48.04v8.51h-48.04v24.69h59.76v8.4h-68.17v-74.7h68.17v8.4Z"/>
        <path class="cls-1" d="M1344.22,296.94c0,6.85-5.5,12.45-12.45,12.45h-11.41l23.45,27.81h-11.1l-23.34-27.81h-27.39c-1.04,0-2.49-.21-4.05-.41v28.22h-8.4v-74.6h62.25c6.95,0,12.45,5.6,12.45,12.45v21.89ZM1331.77,300.88c2.18,0,3.94-1.76,3.94-3.94v-21.89c0-2.18-1.76-4.05-3.94-4.05h-49.8c-2.18,0-4.05,1.87-4.05,4.05v21.89c0,2.18,1.87,3.94,4.05,3.94h49.8Z"/>
      </g>
    </g>
    <g>
      <path class="cls-2" d="M173.48,31.7c-190.4,3.73-185.05,292.39,5.27,289.13,190.8-3.27,185.42-292.86-5.27-289.13Z"/>
      <path class="cls-1" d="M134.14,83.79l15.53,8.87c1.96,2.06,7.41,7.79,2.57,9.2-2.05.47-3.87-1.61-5.72-3.69l-15.53-8.87c-3.58-2.16-.54-7.49,3.15-5.51h0Z"/>
      <path class="cls-1" d="M245.06,239.52c-1.83,9.84-6.31,19.54-15,25.29-.66.47-1.46.64-2.2.55-1.62-.15-2.78-1.67-3.23-3.04-1-2.91-1.56-5.9-2.44-8.73-.87-3.32-1.55-6.41-2.75-9.02-1.2-2.82-5.28-8.19-.69-9.37,5.4-.89,8.63,13.07,9.57,16.76.88,2.81,1.38,5.69,2.33,8.33-.09-.16-.28-.4-.48-.56-.43-.36-.97-.6-1.54-.67,0,0-2.2.55-2.2.55,7.37-4.92,10.76-12.81,12.42-21.39.97-4.08,6.95-2.85,6.21,1.3h0Z"/>
      <path class="cls-3" d="M262.93,115.09c-9.24-17.73-27.25-29.73-46.37-34.62-15.53-3.97-29.45,4.91-39.92,15.59-10.28-9.84-19.47-17.19-34.26-16.12-9.02.66-34.82,12.17-40.6,19.29-2.03,2.5-2.27,6.39-4.28,9.01-12.01,15.63-24.48,20.54-18.42,44.77l-.14.78"/>
      <path class="cls-3" d="M200.59,259.8c-7.5,8.55-15.92,16.35-23.51,24.83l-.44.47"/>
      <path class="cls-3" d="M110.67,238.51l.32.55c4.14,7.66,8.81,15.06,13,22.7l4.15-3.41.44-.57"/>
      <line class="cls-3" x1="221.3" y1="86.46" x2="201.77" y2="98.67"/>
      <path class="cls-3" d="M201.82,242.73c.5,4.85.93,9.69,1.39,14.53.56,5.96.87,11.99,1.98,17.87,5.87-5.26,11.56-10.86,17.03-16.55"/>
      <path class="cls-1" d="M100.42,104.38l24.11-.71c3.16,1.19,7.35,3.52,6.52,6.05-.94,2.32-4.54.79-6.34.29l-24.11.71c-4.19,0-4.38-6.09-.19-6.34h0Z"/>
      <path class="cls-3" d="M128.58,257.77l.48.45,18.33,16.87c1.92-9.22,2.22-18.73,3.65-28.03.07-.45.05-.93.23-1.32l.18,1.69c1.22,15.88,11.95,28.58,24.63,37.25l.56.42"/>
      <path class="cls-1" d="M227.74,103.8c17.02-5.36,35.77,2.92,44.68,18.01,6.81,11.22,8.05,25.01,7.31,37.72-.39,7.16-1.35,14.52-3.2,21.55-5.28,20.63-16.66,39.52-22.64,59.51-.35,1.16-1.3,1.97-2.41,2.2l-1.32.27c-1.11.24-2.22-.15-2.94-.94,0,0-14.32-15.72-14.32-15.72-2.87-3.16,1.68-7.39,4.62-4.35,0,0,14.32,15.72,14.32,15.72,0,0-2.94-.94-2.94-.94l1.32-.27-2.41,2.2c4.19-13.89,10.55-26.72,15.84-39.64,5.41-12.85,9.17-25.98,9.74-39.95.37-6.87.2-13.74-1.15-20.29-3.6-20.01-22.22-35.07-42.65-29.02-2.18.81-6.08,3.2-7.75.8-1.76-3.54,3.14-5.83,5.9-6.87h0Z"/>
      <path class="cls-1" d="M270,147.7l-15.34-11.69c-1.61-.77-3.42-1.57-4.51-3.01-.98-1.17-.51-3.29.94-3.7,2.51-.63,5.12.68,7.42,1.66l15.34,11.69c3.26,2.61-.45,7.5-3.85,5.05h0Z"/>
      <path class="cls-1" d="M98.05,136.36c-10.86,5.09-19.52,18.26-16.76,30.52,1.08,4.5,2.66,8.97,3.33,13.81.26,1.73-.94,3.34-2.67,3.6-1.79.27-3.44-1.03-3.62-2.83-.3-1.97-.8-4.18-1.39-6.34-1.27-4.62-2.92-9.57-2.54-14.63,1.16-12.71,9.41-24.46,20.96-29.87,2.68-1.27,7.95-2.99,8.58.31.55,1.97-3.82,4.34-5.89,5.43h0Z"/>
      <path class="cls-3" d="M136.31,135.24c-22.96-21.97-44.33,9.16-18.5,25.5"/>
      <path class="cls-3" d="M201.82,242.73c8.49-4.97,14.09-8.64,15.18-19.16.41-3.94-1.92-11.11-.89-13.96,6.3-17.43,26.53-30.59,14.63-53.88-14.66-28.69-41.19-29.61-69.95-26.69-24.33,2.46-46.41,24.57-39.59,50.12,3.17,11.87,13.57,21.74,16.5,30.45.99,2.96-1.71,10.63-1.02,15.23,3.24,21.34,26.3,19.94,40.5,10.78"/>
      <path class="cls-3" d="M235.89,160.24c25.8-15.9,4.43-46.3-18.88-25.39"/>
      <line class="cls-3" x1="229.3" y1="144.91" x2="231.21" y2="143.64"/>
      <line class="cls-3" x1="123.98" y1="144.27" x2="122.08" y2="143"/>
      <path class="cls-1" d="M95.73,163.53c-5.45,3.2-11.33,11.55-11.05,18.08.46,5.43,2.53,10.55,4.57,15.69,4.03,9.86,9.06,19.58,12.85,29.71,1.26,3.49,2.45,7.04,2.96,11.1,0,0-2.44-2.74-2.44-2.74,0,0,1.37.31,1.37.31,0,0-2.83.73-2.83.73,2.2-2.16,4.93-4.74,7.31-6.97,2.38-2.32,4.84-4.97,7.97-7.19,2.18-1.42,6.2-4.32,8.66-2.54,4.88,4.35-2.35,5.92-5,7.72-3.69,2.64-7.29,6.89-10.97,10.05-1.73,1.34-3.8,5.03-6.54,4.39,0,0-.02,0-.02,0l-1.37-.31c-1.35-.31-2.3-1.44-2.44-2.74-.38-3.07-1.43-6.38-2.61-9.62-3.76-10.03-8.66-19.45-12.76-29.5-2.25-5.62-4.57-11.54-5.03-17.76-.36-9.15,6.56-19.32,14.26-23.94,2.44-1.4,8.36-4.89,9.48-.69.86,3.53-4.12,4.56-6.36,6.21h0Z"/>
      <path class="cls-1" d="M268.07,174.94l-11.89-12.63c-2.78-1.64-9.66-5.63-3.63-7.46,2.66-.68,6,1.54,8.25,3.11l11.89,12.63c2.79,3.11-1.67,7.32-4.62,4.35h0Z"/>
      <line class="cls-3" x1="177.17" y1="235.63" x2="201.82" y2="242.73"/>
      <path class="cls-3" d="M193.2,174.65c4.28-9.12,10.11-9.03,18.99-7.81-3.96,13.15-7.79,10.18-18.99,7.81Z"/>
      <path class="cls-3" d="M159.81,174.53c-3.59-9.31-10.74-8.72-19.07-7.67,3.5,11.96,8.9,10.6,19.07,7.67Z"/>
      <path class="cls-3" d="M159.81,174.53c.5,7.88-1.94,21.11.34,28.35,3.12,9.91,11.96,16.76,16.49,25.67"/>
      <path class="cls-3" d="M193.2,174.65c-.34,13.49,2.35,24.06-4.69,36.33-4.78,8.32-14.22,14.45-11.33,24.65"/>
      <path class="cls-1" d="M86.93,195.03l9.2-11.5c2.1-1.49,6.53-4.92,8.79-3.14,2.52,2.8-1.8,5.55-3.83,7.11l-9.2,11.5c-2.69,3.2-7.49-.63-4.95-3.96h0Z"/>
      <path class="cls-1" d="M261.4,198.99l-9.2-11.5c-2.02-1.72-6.35-2.39-5.43-6.09,1.36-4.39,8.37.44,10.39,2.12l9.2,11.5c2.53,3.33-2.26,7.17-4.95,3.96h0Z"/>
      <path class="cls-1" d="M95.82,215.13l11.2-12.69c1.11-.75,2.45-1.61,3.61-2.28,1.36-.7,2.21-1.34,2.69-.96.88.81,2.17,2.4,2.61,3.26.11.36-.34.93-1.05,1.62-.85.82-2.13,1.81-3.11,2.55l-11.2,12.69c-2.84,3.06-7.45-.99-4.76-4.2h0Z"/>
      <path class="cls-1" d="M252.7,219.33l-10.55-12.06c-2.49-1.48-6.6-4.03-4.21-7.2,2.3-2.42,6.81,1.39,8.99,3.02l10.55,12.06c2.67,3.21-1.94,7.26-4.77,4.18h0Z"/>
      <path class="cls-1" d="M125.47,257.15l3.02-15.16c1.11-2.38,2.8-6.01,5.53-6.37,4.5.1,1.97,5.21.69,7.61l-3.02,15.16c-.92,4.08-6.94,2.89-6.22-1.24h0Z"/>
      <polyline class="cls-3" points="176.64 285.1 176.64 284.45 176.64 255.3"/>
    </g>
    <g>
      <g id="_Radial_Repeat_" data-name="&amp;lt;Radial Repeat&amp;gt;">
        <circle class="cls-1" cx="239.26" cy="331.98" r="8.29"/>
      </g>
      <g id="_Radial_Repeat_-2" data-name="&amp;lt;Radial Repeat&amp;gt;">
        <circle class="cls-1" cx="294.06" cy="296.02" r="8.29"/>
      </g>
      <g id="_Radial_Repeat_-3" data-name="&amp;lt;Radial Repeat&amp;gt;">
        <circle class="cls-1" cx="330.91" cy="241.82" r="8.29"/>
      </g>
      <g id="_Radial_Repeat_-4" data-name="&amp;lt;Radial Repeat&amp;gt;">
        <circle class="cls-1" cx="344.23" cy="177.65" r="8.29"/>
      </g>
      <g id="_Radial_Repeat_-5" data-name="&amp;lt;Radial Repeat&amp;gt;">
        <circle class="cls-1" cx="331.98" cy="113.26" r="8.29"/>
      </g>
      <g id="_Radial_Repeat_-6" data-name="&amp;lt;Radial Repeat&amp;gt;">
        <circle class="cls-1" cx="296.01" cy="58.47" r="8.29"/>
      </g>
      <g id="_Radial_Repeat_-7" data-name="&amp;lt;Radial Repeat&amp;gt;">
        <circle class="cls-1" cx="241.82" cy="21.61" r="8.29"/>
      </g>
      <g id="_Radial_Repeat_-8" data-name="&amp;lt;Radial Repeat&amp;gt;">
        <circle class="cls-1" cx="177.64" cy="8.29" r="8.29"/>
      </g>
      <g id="_Radial_Repeat_-9" data-name="&amp;lt;Radial Repeat&amp;gt;">
        <circle class="cls-1" cx="113.26" cy="20.55" r="8.29"/>
      </g>
      <g id="_Radial_Repeat_-10" data-name="&amp;lt;Radial Repeat&amp;gt;">
        <circle class="cls-1" cx="58.46" cy="56.51" r="8.29"/>
      </g>
      <g id="_Radial_Repeat_-11" data-name="&amp;lt;Radial Repeat&amp;gt;">
        <circle class="cls-1" cx="21.61" cy="110.7" r="8.29"/>
      </g>
      <g id="_Radial_Repeat_-12" data-name="&amp;lt;Radial Repeat&amp;gt;">
        <circle class="cls-1" cx="8.29" cy="174.88" r="8.29"/>
      </g>
      <g id="_Radial_Repeat_-13" data-name="&amp;lt;Radial Repeat&amp;gt;">
        <circle class="cls-1" cx="20.54" cy="239.26" r="8.29"/>
      </g>
      <g id="_Radial_Repeat_-14" data-name="&amp;lt;Radial Repeat&amp;gt;">
        <circle class="cls-1" cx="56.5" cy="294.06" r="8.29"/>
      </g>
      <g id="_Radial_Repeat_-15" data-name="&amp;lt;Radial Repeat&amp;gt;">
        <circle class="cls-1" cx="110.7" cy="330.92" r="8.29"/>
      </g>
      <g id="_Radial_Repeat_-16" data-name="&amp;lt;Radial Repeat&amp;gt;">
        <circle class="cls-1" cx="174.87" cy="344.24" r="8.29"/>
      </g>
    </g>
  </g>
</svg>